<svg width="64" height="64" viewBox="0 0 64 64" fill="none" xmlns="http://www.w3.org/2000/svg">
<g clip-path="url(#clip0_14_1408)">
<path d="M61.968 39.6642C62.8874 36.003 63.3921 30.8962 61.7898 28.5463C61.3054 27.8364 60.6503 27.4111 59.8953 27.3134C59.7621 27.2973 59.6268 27.2844 59.4936 27.2801C59.066 27.2605 58.6382 27.3117 58.2274 27.4315L55.6777 28.1833L55.8163 25.5284C56.0397 21.2432 55.3265 17.4134 53.8616 15.0195C53.0325 13.6642 52.0724 12.9564 50.9919 12.9113C50.8952 12.9069 50.7984 12.9091 50.702 12.9177C49.8277 12.9929 49.1232 13.4236 48.5433 14.2344L46.0967 17.654L45.1785 13.5503C44.0401 8.45856 42.1574 8.38553 41.354 8.35116C40.9787 8.33811 40.6044 8.3983 40.2521 8.52837C40.157 8.56009 40.064 8.59812 39.974 8.64221L39.9299 8.66369C39.2157 8.9977 38.5756 9.56369 38.0268 10.3434C37.7797 10.7051 37.5641 11.0875 37.3824 11.4861L34.6674 17.3705L33.8179 10.9427C33.7234 10.2274 33.6235 9.55832 33.5215 8.95259C33.4194 8.34687 33.3325 7.85391 33.2691 7.5242C33.0736 6.50821 32.5527 5.73709 31.7655 5.29354C31.3128 5.04549 30.808 4.90786 30.292 4.89187C29.9488 4.88048 29.6053 4.90859 29.2685 4.97564C28.7799 5.07076 28.3051 5.22663 27.8551 5.4396C27.414 5.64318 27.0004 5.90193 26.6244 6.20964C26.5114 6.30281 26.412 6.41125 26.329 6.53184L25.6997 7.44472L24.5967 7.33732C24.5312 7.33732 24.4646 7.32551 24.3991 7.32336C23.6752 7.29437 22.888 7.47265 21.9869 7.87002C21.7789 7.96222 21.5925 8.09718 21.4401 8.26611C21.2876 8.43505 21.1724 8.63418 21.1019 8.85057L20.5295 10.613L18.7585 10.0663C18.7027 10.0491 18.6457 10.0341 18.5888 10.0201C18.4104 9.979 18.2284 9.95491 18.0454 9.94818C17.7567 9.93826 17.468 9.96533 17.1862 10.0287C16.8025 10.1182 16.4284 10.2448 16.0693 10.4068C15.6982 10.5727 15.3393 10.7647 14.9953 10.9813C14.6838 11.1782 14.4576 11.3239 14.3165 11.4185C14.0378 11.6069 13.825 11.8779 13.7081 12.1934C13.5912 12.5089 13.576 12.8531 13.6646 13.1776L14.3391 15.6725L11.6606 15.5425C11.5156 15.5361 11.376 15.534 11.231 15.5425C10.1669 15.5656 9.11877 15.8057 8.15079 16.2482C6.1586 17.1799 4.54255 18.7615 3.56811 20.7331C3.0924 21.7043 2.83114 22.7665 2.80205 23.8476C2.77295 24.9286 2.97671 26.0033 3.3995 26.9987C3.82909 28.0426 4.5057 29.0479 5.42395 29.9865C6.25273 30.8582 7.24066 31.5633 8.33445 32.0636C9.23782 32.471 10.21 32.7042 11.1998 32.751C11.2997 32.751 11.3985 32.7563 11.4962 32.7563C11.842 32.7552 12.1872 32.7301 12.5294 32.6812L14.628 32.3837L14.6731 34.5026C14.6753 34.7286 14.6918 34.9543 14.7225 35.1782L14.8653 36.1104L14.2027 36.7816C14.0198 36.9674 13.8473 37.1631 13.6861 37.368C11.6369 39.967 13.0524 44.9471 13.5357 46.412C14.3219 48.7952 16.2862 53.3048 20.624 56.7222L20.6863 56.7706C22.8813 58.5112 25.4577 59.7067 28.2042 60.2589C30.2595 60.6826 32.3454 60.9419 34.4419 61.0343C50.6236 61.6851 59.2723 50.4212 61.968 39.6642Z" fill="#7A9AB9"/>
<g filter="url(#filter0_d_14_1408)">
<path d="M60.0039 37.9768C60.9233 34.3167 61.428 29.2099 59.8257 26.8601C59.3424 26.1502 58.6872 25.7238 57.9312 25.6261C57.798 25.6099 57.6627 25.5981 57.5306 25.5928C57.1027 25.5731 56.6745 25.6243 56.2633 25.7442L53.7136 26.496L53.8522 23.8411C54.0756 19.5559 53.3635 15.725 51.8975 13.3311C51.0673 11.9747 50.1083 11.268 49.0321 11.2218C48.9354 11.2183 48.8386 11.2208 48.7422 11.2293C47.8679 11.3045 47.1634 11.7352 46.5835 12.545L44.1369 15.9656L43.2187 11.8608C42.0781 6.77122 40.1986 6.69819 39.3932 6.6649C39.0168 6.65105 38.6414 6.71088 38.288 6.84103C38.193 6.87479 38.1005 6.91497 38.0109 6.96132L37.9669 6.9828C37.2538 7.31681 36.6126 7.88172 36.0638 8.66251C35.8171 9.02411 35.6015 9.40603 35.4194 9.80415L32.7022 15.6831L31.8527 9.25642C31.7582 8.54114 31.6594 7.87098 31.5563 7.26633C31.4511 6.64342 31.3669 6.16693 31.3039 5.83686C31.1085 4.82087 30.5886 4.04975 29.8003 3.60727C29.3475 3.35732 28.8417 3.21854 28.3247 3.20238C27.9815 3.19115 27.6381 3.21889 27.3012 3.28508C26.8125 3.38058 26.3377 3.5368 25.8878 3.75011C25.4478 3.95359 25.0354 4.21197 24.6603 4.51908C24.5475 4.61245 24.4482 4.72086 24.3649 4.84128L23.7356 5.75524L22.6326 5.64784C22.5671 5.64139 22.5016 5.63602 22.435 5.6328C21.7122 5.6038 20.9239 5.78316 20.0228 6.18053C19.8148 6.2725 19.6285 6.40726 19.476 6.57601C19.3235 6.74477 19.2083 6.94376 19.1379 7.16L18.5665 8.9267L16.7944 8.38112C16.7386 8.36286 16.6817 8.34783 16.6247 8.33494C16.4464 8.29328 16.2644 8.26918 16.0813 8.26298C15.7926 8.25263 15.5038 8.2797 15.2221 8.34353C14.8381 8.43198 14.4639 8.55862 14.1052 8.72157C13.7339 8.88708 13.3749 9.0791 13.0312 9.29615C12.7197 9.49162 12.4942 9.63768 12.3514 9.73327C12.0726 9.92169 11.8598 10.1927 11.7429 10.5082C11.626 10.8237 11.6108 11.1679 11.6995 11.4924L12.3739 13.9862L9.69648 13.8563C9.55149 13.8498 9.41187 13.8488 9.26688 13.8563C8.20327 13.8801 7.15564 14.1202 6.18778 14.5619C5.19557 15.018 4.29087 15.6443 3.51463 16.4124C2.72914 17.1704 2.08314 18.0607 1.60617 19.0425C1.13048 20.0136 0.869225 21.0756 0.840132 22.1565C0.811039 23.2374 1.01479 24.3119 1.43755 25.3071C1.86715 26.3521 2.54375 27.3573 3.46201 28.2949C4.29067 29.1673 5.27859 29.873 6.3725 30.3741C7.27598 30.781 8.2481 31.0139 9.23788 31.0604C9.33884 31.0604 9.43765 31.0668 9.5343 31.0658C9.88006 31.0657 10.2254 31.0406 10.5675 30.9906L12.6671 30.6963L12.7111 32.8164C12.7127 33.0412 12.7285 33.2658 12.7584 33.4887L12.9002 34.422L12.2375 35.0932C12.0546 35.279 11.8822 35.4747 11.7209 35.6796C9.67177 38.2776 11.0884 43.2576 11.5706 44.7225C12.3567 47.1057 14.3221 51.6153 18.6535 55.0381L18.7169 55.0854C20.9114 56.827 23.488 58.0229 26.2347 58.5748C28.2904 58.9982 30.3766 59.2571 32.4735 59.3491C48.6595 59.9978 57.3083 48.7392 60.0039 37.9768Z" fill="white"/>
</g>
<path d="M55.6341 27.5046C54.8415 27.4026 54.2777 27.67 53.8449 28.1726C52.7397 29.4614 52.5067 32.2849 51.4746 34.2438C49.855 37.3165 48.5222 38.384 47.7704 38.6246C47.763 38.6252 47.7558 38.627 47.7489 38.63C47.593 38.6887 47.4228 38.698 47.2613 38.6568C47.231 38.6489 47.2025 38.6351 47.1776 38.616C47.1303 38.5895 47.0953 38.5455 47.0803 38.4934C47.0652 38.4414 47.0712 38.3855 47.097 38.3378C53.9168 23.5437 49.8002 14.78 47.9186 14.9487C47.3172 15.0013 46.8876 15.6038 46.5461 16.5596C45.2423 20.194 45.2573 28.9673 42.3855 32.1571V32.1356C42.393 31.9315 42.4499 30.4366 42.4714 28.324V28.2596C42.48 27.3768 42.4832 26.3909 42.4714 25.3448C42.3984 18.7935 41.8044 10.0094 39.1292 11.0533C39.0995 11.0611 39.0712 11.0734 39.0454 11.0898C38.6072 11.2821 38.2324 11.6268 37.9091 12.0919C35.353 15.7799 36.281 26.8956 36.3755 27.9621C36.383 28.0179 36.3851 28.0448 36.3851 28.0448L36.2015 27.8848V27.8794C36.1628 27.8504 36.1242 27.815 36.0737 27.772C36.0672 27.7675 36.0614 27.7621 36.0565 27.7559C34.7974 26.711 33.4074 25.8348 31.9217 25.1493C27.9039 23.3289 22.0292 22.6792 17.9599 31.0487C17.8468 31.4052 17.7835 31.7757 17.7719 32.1496C17.744 32.9185 17.9427 33.9034 18.9759 34.4157C18.2005 34.406 17.3649 34.7905 16.6131 35.7442C14.8786 37.9437 16.6765 46.1135 22.4287 50.6586C22.4287 50.6586 22.4287 50.6586 22.4352 50.6586C24.1878 52.0598 26.2498 53.0223 28.4495 53.466C46.2679 57.0745 54.0511 45.3885 56.2656 36.5314C57.4728 31.6867 57.0196 27.6829 55.6341 27.5046ZM21.8874 37.6215C21.8241 36.4401 21.1357 35.3221 20.1873 34.7701C20.2937 34.7936 20.4012 34.8112 20.5095 34.8227C22.4867 35.1191 22.6983 34.4253 23.2783 33.0592C25.147 28.6559 33.9633 30.2379 33.2104 39.081C33.2104 39.081 31.2569 45.2801 27.1027 44.2276C26.7116 44.1253 26.3341 43.9768 25.9782 43.7851C22.6747 42.0366 22.0228 40.1099 21.8874 37.6215Z" fill="#FFDD38"/>
<path opacity="0.5" d="M38.6255 20.3033C38.4537 24.5842 37.4839 28.0188 36.4582 27.978C36.4269 27.9772 36.3958 27.9721 36.3658 27.963C36.2703 26.8954 35.3445 15.7786 37.9006 12.0906C38.5428 13.2902 38.7651 16.8129 38.6255 20.3033Z" fill="#FFA400"/>
<path opacity="0.5" d="M46.2516 25.4917C45.1604 29.6319 43.3722 32.3942 42.3853 32.1332V32.1557C45.2582 28.9649 45.242 20.1927 46.5459 16.5562C47.5307 16.8204 47.3406 21.3526 46.2516 25.4917Z" fill="#FFA400"/>
<path opacity="0.5" d="M52.1874 34.9601C50.7987 37.1983 48.9365 38.4366 47.7637 38.6234C48.5251 38.3829 49.8558 37.3164 51.4754 34.2448C52.5075 32.2859 52.7394 29.4634 53.8467 28.1736C54.4997 29.0027 53.851 32.2773 52.1874 34.9601Z" fill="#FFA400"/>
<path opacity="0.5" d="M27.1014 44.2284C27.0112 44.2582 26.9194 44.283 26.8264 44.3025C23.4412 44.992 19.4976 41.3211 20.4158 37.2303C20.7198 35.875 20.302 34.7935 20.1892 34.772C21.1375 35.3219 21.8281 36.4409 21.8904 37.6202C22.0225 40.1097 22.6755 42.0364 25.9769 43.7838C26.3326 43.9763 26.7102 44.1255 27.1014 44.2284Z" fill="#FFA400"/>
<path d="M27.966 20.0639L25.8954 21.0477L21.7069 16.5283L21.3847 18.0416L23.2169 22.4889L20.6533 23.5318L16.1426 12.5611L18.7051 11.5182L20.1947 15.1429L21.1527 10.571L23.0923 9.76978L22.2235 13.9347L27.966 20.0639Z" fill="#2C64A4"/>
<path d="M17.2887 21.2722C17.6188 21.7735 17.8688 22.3232 18.0297 22.9015C18.2625 23.6149 18.2793 24.3812 18.078 25.1042C17.9314 25.5984 17.6871 26.0582 17.3596 26.4563C17.1757 26.666 16.9765 26.8617 16.7635 27.0417C16.7192 27.0894 16.6699 27.1323 16.6164 27.1695L16.5326 27.2328L16.4757 27.2758L16.3275 27.3714L16.1642 27.4788C15.7458 27.7621 15.2814 27.9707 14.7917 28.0952C14.3332 28.2231 13.8541 28.2596 13.3815 28.2026C12.6756 28.1038 12.0124 27.8058 11.4698 27.3434C11.0147 26.9819 10.5974 26.5753 10.224 26.1298C9.8739 25.7002 9.53882 25.2707 9.21018 24.8411C8.88799 24.3943 8.56579 23.9679 8.25326 23.5104C7.92264 23.0326 7.6416 22.5223 7.41448 21.9875C7.28739 21.6779 7.2018 21.3529 7.15995 21.0209C7.09452 20.5811 7.13803 20.1319 7.28668 19.7128C7.4792 19.1996 7.78628 18.7372 8.18453 18.3607C8.34343 18.1942 8.51586 18.0411 8.70004 17.9031L8.81818 17.7957L8.94491 17.7002C9.02975 17.6357 9.12211 17.5831 9.22092 17.5079C9.62877 17.232 10.0688 17.007 10.5312 16.8377C10.9995 16.6903 11.4914 16.6327 11.9811 16.6681C12.7031 16.7352 13.3926 17.0005 13.9733 17.4349C14.9764 18.1587 15.6487 19.0319 16.3199 19.905C16.6705 20.3405 16.994 20.7971 17.2887 21.2722ZM14.5049 21.2722C13.868 20.4743 13.1463 19.7396 12.3569 19.2392C11.9682 18.9943 11.5482 18.8235 11.2142 18.8235C10.8802 18.8235 10.6772 18.8547 10.2648 19.1533L10.1241 19.2607L9.95552 19.3885C9.85951 19.4565 9.76836 19.5311 9.68273 19.6118C9.59155 19.6868 9.51818 19.7811 9.46794 19.8879C9.40972 20.0232 9.38468 20.1705 9.39491 20.3174C9.39867 20.5311 9.43489 20.743 9.5023 20.9457C9.76758 21.8393 10.3089 22.7446 10.9178 23.5641C11.5268 24.3835 12.227 25.1504 13.0271 25.6401C13.4299 25.8753 13.8648 26.0343 14.2214 26.0343C14.5779 26.0343 14.8013 25.9494 15.1493 25.7368L15.2062 25.6949L15.276 25.6412L15.333 25.5982L15.3888 25.5563C15.4408 25.516 15.4877 25.4695 15.5284 25.4178C15.6102 25.3169 15.6722 25.2013 15.711 25.0773C15.8121 24.6871 15.818 24.2782 15.7282 23.8852C15.5445 22.9799 15.0784 22.0863 14.492 21.2658L14.5049 21.2722Z" fill="#2C64A4"/>
<path d="M26.6332 20.2721L24.5626 21.257L20.3741 16.7377L20.0519 18.2498L21.8873 22.6983L19.3237 23.7411L14.813 12.7693L17.3766 11.7265L18.8662 15.3522L19.8242 10.7792L21.7638 9.97803L20.8949 14.144L26.6332 20.2721Z" fill="#51B25C"/>
<path d="M15.2211 20.8887C15.5506 21.3904 15.8006 21.9399 15.9621 22.518C16.1949 23.2318 16.2117 23.9985 16.0104 24.7218C15.8642 25.2175 15.6198 25.6787 15.2919 26.0782C15.1068 26.2865 14.9061 26.4804 14.6916 26.6582C14.6479 26.7065 14.5984 26.7494 14.5444 26.786L14.4607 26.8504L14.4038 26.8923L14.2545 26.989L14.0923 27.0964C13.6734 27.3795 13.2087 27.588 12.7187 27.7128C12.2602 27.8408 11.7811 27.8772 11.3085 27.8202C10.6031 27.7207 9.94051 27.4227 9.39792 26.961C8.94255 26.5994 8.52513 26.1924 8.1521 25.7464C7.80199 25.3168 7.46583 24.8872 7.13826 24.4576C6.81607 24.0097 6.48851 23.5844 6.18027 23.1269C5.85205 22.6472 5.57319 22.1355 5.34794 21.5997C5.22109 21.29 5.13516 20.9651 5.09233 20.6331C5.02789 20.1928 5.07176 19.7435 5.22013 19.324C5.41292 18.8109 5.71996 18.3485 6.11798 17.9718C6.27692 17.8054 6.44934 17.6523 6.63349 17.5143L6.75163 17.4069L6.87836 17.3102C6.96321 17.2469 7.05557 17.1932 7.15437 17.1191C7.56131 16.8429 8.00064 16.6179 8.46248 16.4489C8.93062 16.3008 9.42268 16.2432 9.91236 16.2792C10.6345 16.3458 11.3241 16.6112 11.9046 17.046C12.9077 17.7699 13.58 18.643 14.2512 19.5162C14.6026 19.9532 14.9265 20.4116 15.2211 20.8887ZM12.4362 20.8887C11.7993 20.0897 11.0787 19.3551 10.2883 18.8546C9.89947 18.6098 9.47847 18.439 9.14554 18.439C8.8126 18.439 8.60855 18.4712 8.19614 18.7687L8.05544 18.8761L7.88683 19.005C7.79081 19.0731 7.69933 19.1473 7.61296 19.2273C7.52189 19.3028 7.44855 19.3974 7.39817 19.5044C7.33921 19.6395 7.31414 19.787 7.32514 19.934C7.32766 20.1477 7.36391 20.3598 7.43254 20.5623C7.70425 21.4515 8.24769 22.3569 8.85341 23.1785C9.45914 24.0001 10.1637 24.7647 10.9638 25.2545C11.3665 25.4886 11.8015 25.6486 12.1581 25.6486C12.5146 25.6486 12.738 25.5638 13.086 25.3511L13.1429 25.3082L13.2127 25.2556L13.2696 25.2126L13.3255 25.1696C13.3774 25.1296 13.424 25.083 13.464 25.0311C13.5466 24.9305 13.6089 24.8149 13.6477 24.6906C13.7483 24.3003 13.7542 23.8916 13.6649 23.4985C13.4801 22.5942 13.0205 21.6996 12.4287 20.8802L12.4362 20.8887Z" fill="#51B25C"/>
<path d="M29.2098 18.3078C28.995 17.4336 29.4429 16.6496 30.2709 16.4434C31.1473 16.2286 31.8647 16.7151 32.0838 17.5893C32.2986 18.4399 31.8991 19.2358 31.0227 19.4538C30.17 19.6675 29.4225 19.1574 29.2098 18.3078ZM28.7716 15.6336L26.1511 6.9451L29.0638 6.21802L30.8348 15.1235L28.7716 15.6336Z" fill="#2C64A4"/>
<path d="M28.0089 18.1028C27.7941 17.2285 28.242 16.4445 29.07 16.2383C29.9464 16.0235 30.6638 16.5111 30.8818 17.3853C31.0966 18.2349 30.6981 19.0307 29.8218 19.2498C28.968 19.4624 28.2237 18.9523 28.0089 18.1028ZM27.5707 15.4285L24.9502 6.74003L27.8618 6.01294L29.6317 14.9087L27.5707 15.4285Z" fill="#51B25C"/>
</g>
<defs>
<filter id="filter0_d_14_1408" x="-5.1626" y="-1.80005" width="72.0269" height="68.1758" filterUnits="userSpaceOnUse" color-interpolation-filters="sRGB">
<feFlood flood-opacity="0" result="BackgroundImageFix"/>
<feColorMatrix in="SourceAlpha" type="matrix" values="0 0 0 0 0 0 0 0 0 0 0 0 0 0 0 0 0 0 127 0" result="hardAlpha"/>
<feOffset dy="1"/>
<feGaussianBlur stdDeviation="3"/>
<feComposite in2="hardAlpha" operator="out"/>
<feColorMatrix type="matrix" values="0 0 0 0 0.172549 0 0 0 0 0.392157 0 0 0 0 0.643137 0 0 0 0.08 0"/>
<feBlend mode="normal" in2="BackgroundImageFix" result="effect1_dropShadow_14_1408"/>
<feBlend mode="normal" in="SourceGraphic" in2="effect1_dropShadow_14_1408" result="shape"/>
</filter>
<clipPath id="clip0_14_1408">
<rect width="64" height="64" fill="white"/>
</clipPath>
</defs>
</svg>
