<svg width="64" height="64" viewBox="0 0 64 64" fill="none" xmlns="http://www.w3.org/2000/svg">
<g clip-path="url(#clip0_14_1423)">
<path d="M38.8223 30.1315L31.7602 59.4335C31.7602 59.4335 17.304 57.2467 14.6201 31.9511C12.9671 16.365 8.79658 14.8677 10.4638 9.09615C10.9432 7.43481 12.1759 5.32242 16.2142 5.48655C19.1177 5.44994 20.8676 6.55632 22.7686 8.36172C22.7698 8.36593 22.7722 8.36967 22.7757 8.37234C24.6933 10.199 27.7857 13.1698 28.1399 18.5069L28.3832 19.6251C28.4044 19.9569 29.3396 22.1566 29.3549 22.5002C29.4624 25.3931 30.2051 25.1168 31.3788 26.6329C34.8868 31.1883 38.8223 30.1315 38.8223 30.1315Z" fill="#7898B9"/>
<path d="M55.0333 39.7854C54.7251 39.9909 54.3886 40.1904 54.0167 40.39C54.0167 40.39 54.0403 40.4112 54.0816 40.4549C54.4193 40.8032 56.0547 42.6157 55.7925 44.5876C55.6131 45.9632 53.9352 47.5702 52.6505 48.1866V48.1925C52.4574 48.2862 52.2547 48.3586 52.046 48.4085C52.2613 48.5841 52.4516 48.7883 52.6115 49.0155C53.5562 50.3497 54.4205 53.7196 43.4547 57.4792C26.4646 63.3016 21.3743 54.2392 21.3743 54.2392C21.3743 54.2392 13.0818 33.3042 17.0409 28.8869C26.0419 18.8138 47.0513 19.2152 49.2889 19.7017C50.0493 19.8647 51.8417 20.0064 53.0284 21.3288C54.7452 23.2369 56.5447 26.7108 52.8087 28.6767C52.8087 28.6767 52.3057 28.9129 52.2998 28.9129C52.1684 28.9933 52.0291 29.0601 51.8842 29.1124C51.8842 29.1124 52.1758 29.1443 52.6505 29.2305C52.7249 29.2459 52.8099 29.26 52.8961 29.2801C54.6673 29.6343 56.4018 30.3747 57.0902 32.8708C57.5129 34.4117 58.6583 37.3884 55.0333 39.7854Z" fill="#7898B9"/>
<path d="M13.0581 31.545L13.5304 31.2214C13.2411 31.591 13.0581 31.545 13.0581 31.545Z" fill="#FCFCFC"/>
<g filter="url(#filter0_d_14_1423)">
<path fill-rule="evenodd" clip-rule="evenodd" d="M14.4101 45.1712C12.8968 41.5675 11.683 37.0197 11.0744 31.284C10.2465 23.4758 8.78582 19.2033 7.74435 16.157C6.70769 13.1248 6.0864 11.3076 6.9181 8.42786C7.39749 6.7677 8.63021 4.65412 12.6625 4.81943C15.566 4.78283 17.3159 5.88803 19.217 7.6946L19.2241 7.70523C21.1475 9.53306 24.2435 12.5015 24.5907 17.8327L24.8339 18.952C24.8419 19.0772 24.9799 19.4679 25.1496 19.9245C34.0851 17.1452 43.6339 17.446 45.1027 17.7784C45.2072 17.8017 45.3312 17.8247 45.4704 17.8505C46.3446 18.0124 47.8197 18.2855 48.8434 19.468C50.5626 21.4482 52.3644 25.0495 48.6296 27.0852C48.6296 27.0852 48.1266 27.332 48.1207 27.332C47.99 27.4149 47.8511 27.4841 47.7063 27.5386C47.7063 27.5386 47.9979 27.5717 48.4726 27.6567C48.4928 27.6608 48.5138 27.665 48.5353 27.6693C48.5932 27.6808 48.6554 27.6931 48.7182 27.7086C50.4893 28.0782 52.2251 28.8457 52.9158 31.4339C52.9426 31.535 52.9723 31.6421 53.0035 31.7547C53.4648 33.4193 54.2569 36.2776 50.8648 38.6024C50.5566 38.8149 50.2189 39.0216 49.8482 39.2282C49.8482 39.2282 49.8718 39.2506 49.9119 39.2955C50.2508 39.6568 51.8874 41.539 51.6264 43.584C51.4481 45.0092 49.7726 46.6741 48.4879 47.3117V47.3176C48.2954 47.4146 48.0926 47.4898 47.8834 47.542C48.1006 47.7245 48.2914 47.9363 48.4502 48.1713C49.3948 49.554 50.2626 53.0491 39.2992 56.9374C22.3139 62.9593 17.2188 53.5592 17.2188 53.5592C17.2188 53.5592 15.7979 49.8481 14.4101 45.1712Z" fill="white"/>
</g>
<path d="M29.8464 29.338L25.5225 53.8979C25.5225 53.8979 16.3786 51.9981 14.5614 30.7514C13.4468 17.6649 9.89972 15.4155 10.9258 10.5779C11.221 9.18581 12.8942 8.38643 15.4422 8.54347C17.276 8.52694 18.3871 9.46329 19.5974 10.9877C19.5963 10.9907 19.5963 10.9941 19.5974 10.9971C20.8206 12.5392 21.7416 15.2384 21.9872 19.7147V19.7372C22.0026 20.0158 22.0132 20.2992 22.0238 20.5873C22.1053 23.0173 22.6319 24.7814 23.3806 26.0554C25.6276 29.9047 29.8464 29.338 29.8464 29.338Z" fill="#FFDD38"/>
<path d="M17.2974 30.4232L17.6256 30.187C17.4249 30.4574 17.2974 30.4232 17.2974 30.4232Z" fill="#FAB02D"/>
<path d="M23.3859 26.0556L17.6309 30.1872C17.9627 29.7491 19.3843 27.9779 19.9097 24.5065C21.3538 14.9576 19.6736 11.1378 19.6075 10.9973C20.8307 12.5394 21.7517 15.2386 21.9973 19.7149V19.7374C22.0127 20.0113 22.0233 20.2947 22.0339 20.5875C22.1107 23.0175 22.6373 24.7816 23.3859 26.0556Z" fill="#FAB02D"/>
<path d="M45.585 38.2104C45.3548 38.3804 45.1044 38.5457 44.8281 38.7122C44.8281 38.7122 44.8459 38.7299 44.8766 38.7665C45.1292 39.0582 46.3513 40.5731 46.1601 42.2215C46.029 43.368 44.7821 44.7011 43.8257 45.2171C43.6835 45.2949 43.5325 45.3552 43.3758 45.3965C43.5391 45.5458 43.6813 45.7166 43.7985 45.9043C44.507 47.0201 45.1564 49.8339 36.9914 52.9487C24.3418 57.7733 20.5338 50.1999 20.5338 50.1999C20.5338 50.1999 14.3077 32.7163 17.2454 29.037C23.9368 20.6535 39.5938 21.0267 41.2622 21.4376C41.8302 21.5757 43.1656 21.6973 44.0524 22.8037C45.3359 24.4001 45.8377 27.2989 43.0582 28.9331C42.8492 29.0512 42.6225 29.1763 42.3745 29.2873C42.3745 29.2873 42.5918 29.3133 42.946 29.3889C43.0015 29.4007 43.0641 29.4125 43.129 29.4302C44.4468 29.7301 46.5899 30.3524 47.1082 32.4376C47.4211 33.7305 48.2807 36.2184 45.585 38.2104Z" fill="#FFDD38"/>
<path d="M42.3694 29.2968C42.3694 29.2968 39.0573 30.2957 36.4124 30.8141C31.7531 31.7315 27.9522 32.3219 27.918 32.1283C27.918 31.9358 31.6527 31.0361 36.2955 30.121C39.0455 29.5778 41.4968 29.1515 43.0531 28.9331C42.8441 29.0606 42.6174 29.1811 42.3694 29.2968Z" fill="#FAB02D"/>
<path d="M44.8278 38.7121C44.8278 38.7121 44.8455 38.7298 44.8762 38.7664C43.3412 39.149 41.047 39.6496 38.4788 40.1515C33.8195 41.0677 30.0186 41.6581 29.9844 41.4657C29.9844 41.2744 33.7191 40.3746 38.3619 39.4584C41.4071 38.8585 44.0863 38.3957 45.5847 38.2056C45.3544 38.3803 45.1041 38.5456 44.8278 38.7121Z" fill="#FAB02D"/>
<path d="M43.7943 45.9089C43.0422 46.0636 42.244 46.2289 41.421 46.3895C36.7617 47.3093 32.9608 47.895 32.9265 47.7084C32.9265 47.5112 36.6613 46.6162 41.3029 45.7011C42.1778 45.5311 43.0268 45.3693 43.8215 45.2229C43.6793 45.3007 43.5283 45.361 43.3716 45.4024C43.5348 45.5513 43.677 45.7217 43.7943 45.9089Z" fill="#FAB02D"/>
</g>
<defs>
<filter id="filter0_d_14_1423" x="0.531982" y="-0.189697" width="58.8948" height="66.1414" filterUnits="userSpaceOnUse" color-interpolation-filters="sRGB">
<feFlood flood-opacity="0" result="BackgroundImageFix"/>
<feColorMatrix in="SourceAlpha" type="matrix" values="0 0 0 0 0 0 0 0 0 0 0 0 0 0 0 0 0 0 127 0" result="hardAlpha"/>
<feOffset dy="1"/>
<feGaussianBlur stdDeviation="3"/>
<feComposite in2="hardAlpha" operator="out"/>
<feColorMatrix type="matrix" values="0 0 0 0 0.172549 0 0 0 0 0.392157 0 0 0 0 0.643137 0 0 0 0.08 0"/>
<feBlend mode="normal" in2="BackgroundImageFix" result="effect1_dropShadow_14_1423"/>
<feBlend mode="normal" in="SourceGraphic" in2="effect1_dropShadow_14_1423" result="shape"/>
</filter>
<clipPath id="clip0_14_1423">
<rect width="64" height="64" fill="white"/>
</clipPath>
</defs>
</svg>
