<svg width="358" height="191" viewBox="0 0 358 191" fill="none" xmlns="http://www.w3.org/2000/svg">
<g filter="url(#filter0_i_1_31)">
<path d="M26.622 103.678C26.826 105.004 26.724 106.381 26.316 107.809C26.01 109.135 26.112 110.359 26.622 111.481C26.928 112.297 27.03 113.521 26.928 115.153C26.928 116.785 26.826 118.162 26.622 119.284C26.01 119.284 25.398 119.029 24.786 118.519C24.276 118.111 23.715 117.55 23.103 116.836C22.389 116.02 21.573 115.255 20.655 114.541C19.839 113.725 19.227 112.705 18.819 111.481C17.493 106.279 16.473 100.822 15.759 95.11C15.045 89.296 14.535 83.431 14.229 77.515C13.923 71.599 13.719 65.785 13.617 60.073C13.617 54.259 13.617 48.751 13.617 43.549C13.617 41.815 13.821 40.744 14.229 40.336C14.433 40.132 14.688 40.132 14.994 40.336C15.402 40.438 15.861 40.54 16.371 40.642C16.881 40.744 17.34 40.948 17.748 41.254C18.156 41.458 18.462 41.662 18.666 41.866C18.972 42.172 19.278 42.376 19.584 42.478C19.89 42.58 20.094 42.886 20.196 43.396C21.012 53.494 21.981 63.541 23.103 73.537C24.225 83.533 25.398 93.58 26.622 103.678ZM82.9009 77.668C83.2069 78.178 83.3089 78.688 83.2069 79.198C83.2069 79.606 83.1559 79.963 83.0539 80.269C82.2379 81.187 81.5749 81.799 81.0649 82.105C80.5549 82.411 79.6879 82.87 78.4639 83.482C78.1579 83.686 77.8519 83.89 77.5459 84.094C77.3419 84.298 77.0869 84.4 76.7809 84.4C76.2709 84.4 75.4549 83.992 74.3329 83.176C73.3129 82.36 72.1909 81.544 70.9669 80.728C69.7429 79.912 68.4169 79.3 66.9889 78.892C65.6629 78.484 64.4389 78.637 63.3169 79.351C62.1949 80.881 61.1239 82.87 60.1039 85.318C59.0839 87.664 58.2679 90.163 57.6559 92.815C57.1459 95.467 56.9929 98.17 57.1969 100.924C57.4009 103.678 58.2169 106.228 59.6449 108.574C65.5609 109.186 70.8139 108.217 75.4039 105.667C79.9939 103.015 84.2269 99.751 88.1029 95.875C88.1029 96.589 87.8989 97.252 87.4909 97.864C87.1849 98.374 86.8789 98.935 86.5729 99.547C86.1649 100.465 85.7059 101.383 85.1959 102.301C84.7879 103.117 84.1759 103.933 83.3599 104.749C81.9319 106.279 80.2999 107.758 78.4639 109.186C76.7299 110.614 74.8429 111.889 72.8029 113.011C70.8649 114.031 68.8249 114.796 66.6829 115.306C64.6429 115.918 62.6029 116.122 60.5629 115.918C59.4409 115.816 58.6249 115.51 58.1149 115C57.7069 114.592 56.9419 114.133 55.8199 113.623C55.2079 113.215 54.3919 112.858 53.3719 112.552C52.4539 112.246 51.7399 111.838 51.2299 111.328C50.2099 110.104 49.4449 108.625 48.9349 106.891C48.2209 104.647 47.8639 102.199 47.8639 99.547C47.8639 96.895 48.0169 94.345 48.3229 91.897C48.7309 89.347 49.2409 87.052 49.8529 85.012C50.5669 82.972 51.1789 81.391 51.6889 80.269C52.3009 78.943 53.2189 77.821 54.4429 76.903C55.6669 75.883 56.9929 74.965 58.4209 74.149C59.9509 73.333 61.4809 72.568 63.0109 71.854C64.5409 71.14 65.9689 70.477 67.2949 69.865C72.4969 69.865 77.6989 72.466 82.9009 77.668ZM135.321 67.876C136.035 68.59 136.698 69.406 137.31 70.324C137.922 71.14 138.432 72.007 138.84 72.925C139.656 74.863 140.064 76.801 140.064 78.739C140.166 80.575 139.452 82.819 137.922 85.471C136.188 88.327 133.944 90.724 131.19 92.662C128.538 94.6 125.631 95.824 122.469 96.334C120.225 96.742 117.981 96.742 115.737 96.334C113.493 95.824 111.351 94.804 109.311 93.274C108.699 93.784 108.189 94.549 107.781 95.569C107.475 96.487 107.373 97.354 107.475 98.17C107.679 99.598 108.189 101.179 109.005 102.913C109.923 104.545 110.892 105.667 111.912 106.279C113.646 106.993 116.043 107.044 119.103 106.432C122.265 105.82 125.58 104.902 129.048 103.678C132.618 102.352 136.086 100.924 139.452 99.394C142.92 97.762 145.878 96.385 148.326 95.263C148.326 95.875 148.173 96.283 147.867 96.487C147.663 96.691 147.357 97.048 146.949 97.558C146.439 98.068 145.878 98.68 145.266 99.394C144.654 100.108 143.94 100.72 143.124 101.23C142.104 101.842 141.339 102.658 140.829 103.678C140.319 104.596 139.35 105.463 137.922 106.279C135.984 107.299 133.995 108.37 131.955 109.492C130.017 110.512 128.079 111.481 126.141 112.399C124.203 113.215 122.214 113.878 120.174 114.388C118.236 114.796 116.298 114.898 114.36 114.694C113.034 114.49 111.912 114.133 110.994 113.623C110.178 113.113 109.158 112.348 107.934 111.328C107.322 110.818 106.608 110.308 105.792 109.798C104.976 109.288 104.364 108.778 103.956 108.268C102.222 105.718 101.049 103.015 100.437 100.159C99.8253 97.201 99.6723 94.294 99.9783 91.438C100.386 88.48 101.151 85.624 102.273 82.87C103.395 80.014 104.874 77.413 106.71 75.067C107.73 73.741 108.954 72.415 110.382 71.089C111.912 69.661 113.544 68.437 115.278 67.417C117.114 66.295 119.001 65.428 120.939 64.816C122.979 64.204 125.019 63.949 127.059 64.051C127.875 64.153 128.589 64.408 129.201 64.816C129.915 65.122 130.68 65.479 131.496 65.887C132.006 66.091 132.618 66.397 133.332 66.805C134.148 67.111 134.811 67.468 135.321 67.876ZM130.884 76.903C130.68 75.985 130.119 75.169 129.201 74.455C128.283 73.741 127.263 73.18 126.141 72.772C125.019 72.262 123.897 71.956 122.775 71.854C121.653 71.752 120.837 71.803 120.327 72.007C119.511 72.313 118.542 72.874 117.42 73.69C116.4 74.404 115.38 75.271 114.36 76.291C113.442 77.311 112.524 78.433 111.606 79.657C110.79 80.779 110.178 81.85 109.77 82.87C109.566 83.176 109.362 83.686 109.158 84.4C109.056 85.012 109.107 85.471 109.311 85.777C110.535 87.307 112.371 88.072 114.819 88.072C117.165 88.072 119.664 87.511 122.316 86.389C125.07 85.267 127.008 84.094 128.13 82.87C128.232 82.666 128.436 82.309 128.742 81.799C129.15 81.289 129.507 80.728 129.813 80.116C130.119 79.504 130.374 78.892 130.578 78.28C130.884 77.668 130.986 77.209 130.884 76.903ZM209.121 39.418C209.325 39.622 209.478 39.775 209.58 39.877C209.784 39.979 209.886 40.183 209.886 40.489C209.886 43.651 210.039 46.966 210.345 50.434C210.651 53.902 210.957 57.421 211.263 60.991C211.569 64.459 211.824 67.927 212.028 71.395C212.334 74.863 212.487 78.127 212.487 81.187C213.201 80.167 214.017 78.994 214.935 77.668C215.955 76.342 217.128 75.118 218.454 73.996C219.78 72.874 221.208 71.956 222.738 71.242C224.37 70.426 226.155 69.967 228.093 69.865C228.807 69.151 229.47 68.794 230.082 68.794C231.102 68.692 232.071 69.049 232.989 69.865C233.907 70.579 234.876 71.446 235.896 72.466C237.222 73.792 238.344 75.373 239.262 77.209C240.18 79.045 240.792 80.932 241.098 82.87C241.404 84.808 241.353 86.695 240.945 88.531C240.639 90.367 239.823 91.948 238.497 93.274C237.171 97.15 235.335 100.414 232.989 103.066C230.643 105.616 228.144 107.554 225.492 108.88L216.312 113.47C215.7 113.776 215.088 114.184 214.476 114.694C213.966 115.102 213.405 115.459 212.793 115.765C212.283 115.969 211.875 115.867 211.569 115.459C211.365 115.153 211.008 114.898 210.498 114.694C209.274 114.184 208.509 113.419 208.203 112.399C207.897 111.481 207.693 110.716 207.591 110.104C207.489 109.492 207.336 108.625 207.132 107.503C206.01 102.505 205.194 96.997 204.684 90.979C204.276 84.961 204.021 78.994 203.919 73.078C203.919 67.06 203.97 61.297 204.072 55.789C204.276 50.179 204.48 45.334 204.684 41.254C204.684 39.928 204.735 39.061 204.837 38.653C205.041 38.245 205.398 37.939 205.908 37.735C206.112 37.633 206.367 37.531 206.673 37.429C206.979 37.327 207.387 37.378 207.897 37.582C208.203 37.684 208.407 37.939 208.509 38.347C208.713 38.653 208.917 39.01 209.121 39.418ZM235.896 84.094C235.896 83.482 235.59 82.717 234.978 81.799C234.468 80.779 233.805 79.81 232.989 78.892C232.275 77.974 231.459 77.158 230.541 76.444C229.623 75.73 228.807 75.271 228.093 75.067C226.971 75.373 225.543 76.138 223.809 77.362C222.075 78.484 220.647 79.759 219.525 81.187C216.567 84.757 214.986 88.531 214.782 92.509C214.578 96.487 215.139 100.414 216.465 104.29C217.383 103.984 218.556 103.474 219.984 102.76C221.514 102.046 223.095 101.23 224.727 100.312C226.359 99.394 227.94 98.476 229.47 97.558C231 96.538 232.275 95.62 233.295 94.804C234.417 93.478 235.131 92.05 235.437 90.52C235.743 88.888 235.896 86.746 235.896 84.094ZM275.304 70.783L272.703 73.384C273.519 73.282 274.743 73.078 276.375 72.772C278.109 72.364 279.792 72.16 281.424 72.16C282.648 72.364 283.668 72.772 284.484 73.384C285.3 73.996 285.81 75.169 286.014 76.903C286.422 79.351 287.034 81.85 287.85 84.4C288.768 86.848 289.431 89.296 289.839 91.744C290.349 94.192 290.349 96.538 289.839 98.782C289.329 100.924 287.952 102.862 285.708 104.596C283.362 108.166 280.761 111.175 277.905 113.623C275.151 115.969 272.244 117.346 269.184 117.754C267.144 118.06 264.9 117.754 262.452 116.836C260.004 116.02 258.219 114.541 257.097 112.399C256.791 112.603 256.536 112.654 256.332 112.552C256.128 112.348 255.924 112.144 255.72 111.94C255.516 111.736 255.312 111.685 255.108 111.787C255.006 111.889 254.904 111.838 254.802 111.634C254.7 111.328 254.649 110.92 254.649 110.41V110.104V109.798C254.751 106.228 255.057 102.658 255.567 99.088C256.179 95.416 257.046 91.897 258.168 88.531C259.392 85.063 260.922 81.85 262.758 78.892C264.696 75.832 267.144 73.129 270.102 70.783C271.122 70.171 272.244 69.967 273.468 70.171C273.672 70.171 273.927 70.171 274.233 70.171C274.539 70.171 274.896 70.375 275.304 70.783ZM270.102 81.187C269.49 81.085 269.133 80.881 269.031 80.575C268.929 80.269 268.929 79.912 269.031 79.504C269.235 78.994 269.439 78.433 269.643 77.821C269.949 77.209 270.102 76.597 270.102 75.985C267.96 77.923 266.277 80.269 265.053 83.023C263.931 85.777 263.115 88.633 262.605 91.591C262.095 94.447 261.84 97.252 261.84 100.006C261.942 102.76 262.095 105.157 262.299 107.197C262.503 108.931 262.86 110.359 263.37 111.481C263.88 112.501 264.645 113.113 265.665 113.317C266.787 113.623 268.266 113.317 270.102 112.399C272.754 111.073 274.896 109.237 276.528 106.891C278.16 104.545 279.486 102.046 280.506 99.394C280.914 97.966 281.22 96.283 281.424 94.345C281.73 92.305 281.679 90.418 281.271 88.684C280.761 86.338 279.435 84.655 277.293 83.635C275.253 82.513 272.856 81.697 270.102 81.187ZM354.105 66.499C350.229 70.375 346.302 74.812 342.324 79.81C338.448 84.706 334.572 89.092 330.696 92.968L341.253 105.055L341.559 107.197C342.273 108.013 342.63 108.625 342.63 109.033C342.732 109.441 342.681 110.053 342.477 110.869C342.375 111.889 342.171 112.96 341.865 114.082C341.661 114.898 341.661 115.459 341.865 115.765C342.069 116.071 341.967 116.326 341.559 116.53L338.958 113.929C336.918 112.093 334.725 110.002 332.379 107.656C330.135 105.208 328.044 102.862 326.106 100.618C325.392 101.434 324.423 102.658 323.199 104.29C321.975 105.82 320.7 107.452 319.374 109.186C318.15 110.92 316.926 112.654 315.702 114.388C314.58 116.02 313.764 117.295 313.254 118.213L317.691 118.519L308.205 123.721C307.491 122.395 307.032 120.661 306.828 118.519C306.726 117.397 306.777 116.785 306.981 116.683C307.185 116.581 307.389 115.816 307.593 114.388C307.695 114.184 307.797 113.827 307.899 113.317C308.103 112.705 308.256 112.093 308.358 111.481C308.562 110.869 308.715 110.308 308.817 109.798C309.021 109.288 309.225 108.88 309.429 108.574C310.245 107.35 311.163 106.024 312.183 104.596C313.305 103.168 314.376 101.791 315.396 100.465C316.416 99.037 317.334 97.762 318.15 96.64C319.068 95.518 319.68 94.651 319.986 94.039C319.068 93.019 317.946 91.846 316.62 90.52C315.396 89.194 314.121 87.817 312.795 86.389C311.469 84.961 310.143 83.584 308.817 82.258C307.593 80.83 306.522 79.555 305.604 78.433C304.788 77.617 304.125 76.648 303.615 75.526C303.105 74.302 303.156 73.129 303.768 72.007C304.278 71.191 304.788 70.783 305.298 70.783C305.91 70.681 306.573 70.528 307.287 70.324C308.409 69.916 309.225 69.967 309.735 70.477C310.245 70.885 310.908 71.497 311.724 72.313C314.07 74.353 316.467 76.699 318.915 79.351C321.363 82.003 323.454 84.298 325.188 86.236C328.656 82.258 331.92 78.586 334.98 75.22C338.04 71.854 341.355 69.1 344.925 66.958C345.129 66.754 345.69 66.652 346.608 66.652C347.526 66.652 348.087 66.601 348.291 66.499C349.107 66.295 349.668 66.193 349.974 66.193C350.382 66.193 350.943 66.142 351.657 66.04C352.575 65.938 353.238 65.887 353.646 65.887C354.156 65.887 354.309 66.091 354.105 66.499Z" fill="#6098BD"/>
</g>
<g filter="url(#filter1_i_1_31)">
<path d="M17.267 141.903V144.289H8.63636V141.903H17.267ZM11.0028 157.175V140.133C11.0028 139.178 11.2116 138.386 11.6293 137.756C12.0469 137.12 12.6004 136.646 13.2898 136.334C13.9792 136.016 14.7282 135.857 15.5369 135.857C16.1335 135.857 16.6439 135.907 17.0682 136.006C17.4924 136.099 17.8073 136.185 18.0128 136.265L17.3168 138.671C17.1776 138.631 16.9986 138.585 16.7798 138.532C16.5611 138.472 16.2959 138.442 15.9844 138.442C15.2618 138.442 14.7448 138.621 14.4332 138.979C14.1283 139.337 13.9759 139.854 13.9759 140.53V157.175H11.0028ZM23.6945 157.175V141.903H26.5681V144.329H26.7272C27.0056 143.507 27.4961 142.86 28.1988 142.39C28.9081 141.913 29.7101 141.674 30.605 141.674C30.7906 141.674 31.0094 141.681 31.2613 141.694C31.5198 141.707 31.722 141.724 31.8678 141.743V144.587C31.7485 144.554 31.5364 144.518 31.2314 144.478C30.9265 144.431 30.6216 144.408 30.3167 144.408C29.614 144.408 28.9876 144.557 28.4374 144.856C27.8939 145.147 27.463 145.555 27.1448 146.079C26.8266 146.596 26.6675 147.186 26.6675 147.849V157.175H23.6945ZM43.8361 157.484C42.3314 157.484 41.0355 157.162 39.9483 156.519C38.8678 155.869 38.0326 154.958 37.4427 153.785C36.8593 152.605 36.5677 151.223 36.5677 149.638C36.5677 148.074 36.8593 146.695 37.4427 145.502C38.0326 144.309 38.8546 143.377 39.9086 142.708C40.9692 142.038 42.2088 141.704 43.6273 141.704C44.4891 141.704 45.3243 141.846 46.133 142.131C46.9417 142.416 47.6676 142.864 48.3106 143.474C48.9535 144.083 49.4606 144.876 49.8319 145.85C50.2031 146.818 50.3887 147.994 50.3887 149.38V150.434H38.2481V148.207H47.4753C47.4753 147.424 47.3162 146.732 46.9981 146.128C46.6799 145.519 46.2324 145.038 45.6557 144.687C45.0856 144.335 44.4161 144.16 43.6472 144.16C42.812 144.16 42.0828 144.365 41.4597 144.776C40.8432 145.181 40.366 145.711 40.0279 146.367C39.6964 147.017 39.5307 147.723 39.5307 148.485V150.225C39.5307 151.246 39.7097 152.114 40.0677 152.83C40.4322 153.546 40.9393 154.093 41.589 154.471C42.2386 154.842 42.9976 155.028 43.866 155.028C44.4294 155.028 44.9431 154.948 45.4071 154.789C45.8712 154.623 46.2722 154.378 46.6103 154.053C46.9483 153.728 47.2069 153.327 47.3858 152.85L50.1998 153.357C49.9744 154.186 49.57 154.912 48.9867 155.535C48.41 156.151 47.6841 156.632 46.8091 156.976C45.9408 157.314 44.9498 157.484 43.8361 157.484ZM63.6297 157.484C62.125 157.484 60.8291 157.162 59.7419 156.519C58.6614 155.869 57.8262 154.958 57.2362 153.785C56.6529 152.605 56.3612 151.223 56.3612 149.638C56.3612 148.074 56.6529 146.695 57.2362 145.502C57.8262 144.309 58.6482 143.377 59.7022 142.708C60.7628 142.038 62.0023 141.704 63.4209 141.704C64.2826 141.704 65.1179 141.846 65.9266 142.131C66.7353 142.416 67.4612 142.864 68.1041 143.474C68.7471 144.083 69.2542 144.876 69.6255 145.85C69.9967 146.818 70.1823 147.994 70.1823 149.38V150.434H58.0416V148.207H67.2689C67.2689 147.424 67.1098 146.732 66.7916 146.128C66.4735 145.519 66.026 145.038 65.4493 144.687C64.8792 144.335 64.2097 144.16 63.4408 144.16C62.6056 144.16 61.8764 144.365 61.2533 144.776C60.6368 145.181 60.1595 145.711 59.8215 146.367C59.49 147.017 59.3243 147.723 59.3243 148.485V150.225C59.3243 151.246 59.5033 152.114 59.8612 152.83C60.2258 153.546 60.7329 154.093 61.3826 154.471C62.0322 154.842 62.7912 155.028 63.6595 155.028C64.223 155.028 64.7367 154.948 65.2007 154.789C65.6648 154.623 66.0658 154.378 66.4039 154.053C66.7419 153.728 67.0005 153.327 67.1794 152.85L69.9934 153.357C69.768 154.186 69.3636 154.912 68.7803 155.535C68.2036 156.151 67.4777 156.632 66.6027 156.976C65.7344 157.314 64.7434 157.484 63.6297 157.484ZM76.5227 157.175V155.137L84.7955 144.627V144.488H76.7912V141.903H88.5043V144.07L80.5497 154.451V154.59H88.7827V157.175H76.5227ZM101.795 157.484C100.29 157.484 98.9944 157.162 97.9072 156.519C96.8268 155.869 95.9915 154.958 95.4016 153.785C94.8182 152.605 94.5266 151.223 94.5266 149.638C94.5266 148.074 94.8182 146.695 95.4016 145.502C95.9915 144.309 96.8135 143.377 97.8675 142.708C98.9281 142.038 100.168 141.704 101.586 141.704C102.448 141.704 103.283 141.846 104.092 142.131C104.901 142.416 105.626 142.864 106.269 143.474C106.912 144.083 107.42 144.876 107.791 145.85C108.162 146.818 108.348 147.994 108.348 149.38V150.434H96.207V148.207H105.434C105.434 147.424 105.275 146.732 104.957 146.128C104.639 145.519 104.191 145.038 103.615 144.687C103.045 144.335 102.375 144.16 101.606 144.16C100.771 144.16 100.042 144.365 99.4186 144.776C98.8021 145.181 98.3249 145.711 97.9868 146.367C97.6554 147.017 97.4896 147.723 97.4896 148.485V150.225C97.4896 151.246 97.6686 152.114 98.0266 152.83C98.3911 153.546 98.8983 154.093 99.5479 154.471C100.197 154.842 100.956 155.028 101.825 155.028C102.388 155.028 102.902 154.948 103.366 154.789C103.83 154.623 104.231 154.378 104.569 154.053C104.907 153.728 105.166 153.327 105.345 152.85L108.159 153.357C107.933 154.186 107.529 154.912 106.946 155.535C106.369 156.151 105.643 156.632 104.768 156.976C103.9 157.314 102.909 157.484 101.795 157.484ZM127.656 162.903C127.212 162.903 126.807 162.866 126.443 162.793C126.078 162.727 125.806 162.654 125.627 162.574L126.343 160.138C126.887 160.284 127.371 160.347 127.795 160.327C128.219 160.307 128.594 160.148 128.918 159.85C129.25 159.552 129.542 159.064 129.793 158.388L130.161 157.374L124.573 141.903H127.755L131.623 153.755H131.782L135.65 141.903H138.842L132.548 159.214C132.256 160.009 131.885 160.682 131.434 161.232C130.983 161.789 130.446 162.207 129.823 162.485C129.2 162.763 128.478 162.903 127.656 162.903ZM150.909 157.484C149.478 157.484 148.228 157.155 147.161 156.499C146.094 155.843 145.265 154.925 144.675 153.745C144.085 152.565 143.79 151.186 143.79 149.609C143.79 148.024 144.085 146.639 144.675 145.452C145.265 144.266 146.094 143.344 147.161 142.688C148.228 142.032 149.478 141.704 150.909 141.704C152.341 141.704 153.591 142.032 154.658 142.688C155.725 143.344 156.554 144.266 157.144 145.452C157.734 146.639 158.029 148.024 158.029 149.609C158.029 151.186 157.734 152.565 157.144 153.745C156.554 154.925 155.725 155.843 154.658 156.499C153.591 157.155 152.341 157.484 150.909 157.484ZM150.919 154.988C151.847 154.988 152.616 154.743 153.226 154.252C153.836 153.761 154.287 153.109 154.579 152.293C154.877 151.478 155.026 150.58 155.026 149.599C155.026 148.624 154.877 147.729 154.579 146.914C154.287 146.092 153.836 145.432 153.226 144.935C152.616 144.438 151.847 144.189 150.919 144.189C149.985 144.189 149.209 144.438 148.593 144.935C147.983 145.432 147.529 146.092 147.231 146.914C146.939 147.729 146.793 148.624 146.793 149.599C146.793 150.58 146.939 151.478 147.231 152.293C147.529 153.109 147.983 153.761 148.593 154.252C149.209 154.743 149.985 154.988 150.919 154.988ZM174.382 150.841V141.903H177.365V157.175H174.442V154.53H174.283C173.931 155.346 173.368 156.025 172.592 156.569C171.823 157.106 170.865 157.374 169.719 157.374C168.738 157.374 167.869 157.159 167.114 156.728C166.365 156.29 165.775 155.644 165.344 154.789C164.919 153.934 164.707 152.877 164.707 151.617V141.903H167.68V151.259C167.68 152.3 167.969 153.128 168.545 153.745C169.122 154.361 169.871 154.67 170.793 154.67C171.349 154.67 171.903 154.53 172.453 154.252C173.01 153.974 173.471 153.553 173.835 152.989C174.206 152.426 174.389 151.71 174.382 150.841ZM184.72 157.175V141.903H187.593V144.329H187.752C188.031 143.507 188.521 142.86 189.224 142.39C189.933 141.913 190.735 141.674 191.63 141.674C191.816 141.674 192.035 141.681 192.286 141.694C192.545 141.707 192.747 141.724 192.893 141.743V144.587C192.774 144.554 192.562 144.518 192.257 144.478C191.952 144.431 191.647 144.408 191.342 144.408C190.639 144.408 190.013 144.557 189.463 144.856C188.919 145.147 188.488 145.555 188.17 146.079C187.852 146.596 187.693 147.186 187.693 147.849V157.175H184.72ZM209.596 157.175V141.903H212.45V144.388H212.639C212.957 143.547 213.477 142.89 214.2 142.42C214.922 141.942 215.787 141.704 216.795 141.704C217.816 141.704 218.671 141.942 219.36 142.42C220.056 142.897 220.57 143.553 220.901 144.388H221.06C221.425 143.573 222.005 142.923 222.8 142.439C223.596 141.949 224.544 141.704 225.644 141.704C227.03 141.704 228.16 142.138 229.035 143.006C229.916 143.875 230.357 145.184 230.357 146.934V157.175H227.384V147.212C227.384 146.178 227.103 145.429 226.539 144.965C225.976 144.501 225.303 144.269 224.521 144.269C223.553 144.269 222.8 144.567 222.264 145.164C221.727 145.754 221.458 146.513 221.458 147.441V157.175H218.495V147.023C218.495 146.195 218.237 145.529 217.719 145.025C217.202 144.521 216.53 144.269 215.701 144.269C215.138 144.269 214.617 144.418 214.14 144.716C213.669 145.008 213.288 145.416 212.996 145.939C212.711 146.463 212.569 147.07 212.569 147.759V157.175H209.596ZM244.284 157.484C242.78 157.484 241.484 157.162 240.397 156.519C239.316 155.869 238.481 154.958 237.891 153.785C237.308 152.605 237.016 151.223 237.016 149.638C237.016 148.074 237.308 146.695 237.891 145.502C238.481 144.309 239.303 143.377 240.357 142.708C241.417 142.038 242.657 141.704 244.076 141.704C244.937 141.704 245.773 141.846 246.581 142.131C247.39 142.416 248.116 142.864 248.759 143.474C249.402 144.083 249.909 144.876 250.28 145.85C250.651 146.818 250.837 147.994 250.837 149.38V150.434H238.696V148.207H247.924C247.924 147.424 247.765 146.732 247.446 146.128C247.128 145.519 246.681 145.038 246.104 144.687C245.534 144.335 244.864 144.16 244.095 144.16C243.26 144.16 242.531 144.365 241.908 144.776C241.291 145.181 240.814 145.711 240.476 146.367C240.145 147.017 239.979 147.723 239.979 148.485V150.225C239.979 151.246 240.158 152.114 240.516 152.83C240.881 153.546 241.388 154.093 242.037 154.471C242.687 154.842 243.446 155.028 244.314 155.028C244.878 155.028 245.391 154.948 245.855 154.789C246.319 154.623 246.72 154.378 247.059 154.053C247.397 153.728 247.655 153.327 247.834 152.85L250.648 153.357C250.423 154.186 250.018 154.912 249.435 155.535C248.858 156.151 248.132 156.632 247.257 156.976C246.389 157.314 245.398 157.484 244.284 157.484ZM268.94 145.631L266.246 146.109C266.133 145.764 265.954 145.436 265.709 145.124C265.47 144.813 265.145 144.557 264.734 144.359C264.323 144.16 263.81 144.06 263.193 144.06C262.351 144.06 261.649 144.249 261.085 144.627C260.522 144.998 260.24 145.479 260.24 146.069C260.24 146.579 260.429 146.99 260.807 147.302C261.185 147.613 261.794 147.868 262.636 148.067L265.062 148.624C266.468 148.949 267.515 149.449 268.204 150.126C268.894 150.802 269.239 151.68 269.239 152.761C269.239 153.675 268.973 154.491 268.443 155.207C267.919 155.916 267.187 156.473 266.246 156.877C265.311 157.281 264.227 157.484 262.994 157.484C261.284 157.484 259.889 157.119 258.808 156.39C257.728 155.654 257.065 154.61 256.819 153.258L259.693 152.82C259.872 153.569 260.24 154.136 260.797 154.52C261.354 154.898 262.079 155.087 262.974 155.087C263.949 155.087 264.728 154.885 265.311 154.481C265.894 154.07 266.186 153.569 266.186 152.979C266.186 152.502 266.007 152.101 265.649 151.776C265.298 151.451 264.757 151.206 264.028 151.04L261.443 150.474C260.018 150.149 258.964 149.632 258.281 148.922C257.605 148.213 257.267 147.315 257.267 146.228C257.267 145.326 257.519 144.538 258.023 143.861C258.526 143.185 259.222 142.658 260.111 142.28C260.999 141.896 262.016 141.704 263.163 141.704C264.814 141.704 266.113 142.062 267.061 142.778C268.009 143.487 268.635 144.438 268.94 145.631ZM287.312 145.631L284.617 146.109C284.505 145.764 284.326 145.436 284.08 145.124C283.842 144.813 283.517 144.557 283.106 144.359C282.695 144.16 282.181 144.06 281.565 144.06C280.723 144.06 280.02 144.249 279.457 144.627C278.893 144.998 278.612 145.479 278.612 146.069C278.612 146.579 278.801 146.99 279.178 147.302C279.556 147.613 280.166 147.868 281.008 148.067L283.434 148.624C284.839 148.949 285.887 149.449 286.576 150.126C287.266 150.802 287.61 151.68 287.61 152.761C287.61 153.675 287.345 154.491 286.815 155.207C286.291 155.916 285.559 156.473 284.617 156.877C283.683 157.281 282.599 157.484 281.366 157.484C279.656 157.484 278.26 157.119 277.18 156.39C276.099 155.654 275.436 154.61 275.191 153.258L278.065 152.82C278.244 153.569 278.612 154.136 279.168 154.52C279.725 154.898 280.451 155.087 281.346 155.087C282.32 155.087 283.099 154.885 283.683 154.481C284.266 154.07 284.558 153.569 284.558 152.979C284.558 152.502 284.379 152.101 284.021 151.776C283.669 151.451 283.129 151.206 282.4 151.04L279.815 150.474C278.39 150.149 277.336 149.632 276.653 148.922C275.977 148.213 275.639 147.315 275.639 146.228C275.639 145.326 275.891 144.538 276.394 143.861C276.898 143.185 277.594 142.658 278.482 142.28C279.371 141.896 280.388 141.704 281.535 141.704C283.186 141.704 284.485 142.062 285.433 142.778C286.381 143.487 287.007 144.438 287.312 145.631ZM298.684 157.513C297.716 157.513 296.841 157.334 296.059 156.976C295.276 156.612 294.657 156.085 294.199 155.395C293.749 154.706 293.523 153.861 293.523 152.86C293.523 151.998 293.689 151.289 294.02 150.732C294.352 150.175 294.799 149.734 295.363 149.41C295.926 149.085 296.556 148.84 297.252 148.674C297.948 148.508 298.657 148.382 299.38 148.296C300.294 148.19 301.037 148.104 301.607 148.038C302.177 147.965 302.591 147.849 302.85 147.689C303.108 147.53 303.238 147.272 303.238 146.914V146.844C303.238 145.976 302.992 145.303 302.502 144.826C302.018 144.349 301.295 144.11 300.334 144.11C299.333 144.11 298.544 144.332 297.968 144.776C297.398 145.214 297.003 145.701 296.785 146.238L293.99 145.601C294.322 144.673 294.806 143.924 295.442 143.354C296.085 142.778 296.824 142.36 297.66 142.101C298.495 141.836 299.373 141.704 300.294 141.704C300.904 141.704 301.551 141.777 302.233 141.922C302.923 142.062 303.566 142.32 304.162 142.698C304.766 143.076 305.259 143.616 305.644 144.319C306.028 145.015 306.221 145.92 306.221 147.033V157.175H303.317V155.087H303.198C303.006 155.472 302.717 155.85 302.333 156.221C301.948 156.592 301.454 156.9 300.851 157.145C300.248 157.391 299.526 157.513 298.684 157.513ZM299.33 155.127C300.152 155.127 300.855 154.965 301.438 154.64C302.028 154.315 302.475 153.891 302.78 153.367C303.092 152.837 303.248 152.27 303.248 151.667V149.698C303.142 149.804 302.936 149.904 302.631 149.996C302.333 150.082 301.991 150.159 301.607 150.225C301.222 150.285 300.848 150.341 300.483 150.394C300.119 150.44 299.814 150.48 299.569 150.513C298.992 150.586 298.465 150.709 297.988 150.881C297.517 151.054 297.139 151.302 296.854 151.627C296.576 151.945 296.437 152.369 296.437 152.9C296.437 153.636 296.708 154.192 297.252 154.57C297.795 154.941 298.488 155.127 299.33 155.127ZM319.944 163.221C318.731 163.221 317.687 163.062 316.812 162.743C315.943 162.425 315.234 162.004 314.684 161.481C314.134 160.957 313.723 160.384 313.451 159.761L316.006 158.707C316.185 158.998 316.424 159.306 316.722 159.631C317.027 159.963 317.438 160.244 317.955 160.476C318.479 160.708 319.152 160.824 319.974 160.824C321.101 160.824 322.032 160.549 322.768 159.999C323.504 159.456 323.871 158.587 323.871 157.394V154.391H323.682C323.504 154.716 323.245 155.077 322.907 155.475C322.575 155.873 322.118 156.217 321.535 156.509C320.951 156.801 320.192 156.947 319.258 156.947C318.051 156.947 316.964 156.665 315.996 156.101C315.035 155.531 314.273 154.693 313.709 153.586C313.153 152.472 312.874 151.103 312.874 149.479C312.874 147.855 313.149 146.463 313.7 145.303C314.256 144.143 315.019 143.255 315.986 142.638C316.954 142.015 318.051 141.704 319.278 141.704C320.226 141.704 320.991 141.863 321.575 142.181C322.158 142.493 322.612 142.857 322.937 143.275C323.268 143.692 323.523 144.06 323.702 144.378H323.921V141.903H326.834V157.513C326.834 158.826 326.53 159.903 325.92 160.745C325.31 161.587 324.485 162.21 323.444 162.614C322.41 163.019 321.243 163.221 319.944 163.221ZM319.914 154.481C320.769 154.481 321.492 154.282 322.082 153.884C322.678 153.48 323.129 152.903 323.434 152.154C323.745 151.398 323.901 150.493 323.901 149.439C323.901 148.412 323.749 147.507 323.444 146.725C323.139 145.943 322.691 145.333 322.102 144.895C321.512 144.451 320.782 144.229 319.914 144.229C319.019 144.229 318.273 144.461 317.677 144.925C317.08 145.383 316.629 146.006 316.325 146.795C316.026 147.583 315.877 148.465 315.877 149.439C315.877 150.44 316.03 151.319 316.334 152.074C316.639 152.83 317.09 153.42 317.687 153.844C318.29 154.269 319.032 154.481 319.914 154.481ZM340.764 157.484C339.259 157.484 337.963 157.162 336.876 156.519C335.796 155.869 334.961 154.958 334.371 153.785C333.787 152.605 333.496 151.223 333.496 149.638C333.496 148.074 333.787 146.695 334.371 145.502C334.961 144.309 335.783 143.377 336.837 142.708C337.897 142.038 339.137 141.704 340.555 141.704C341.417 141.704 342.252 141.846 343.061 142.131C343.87 142.416 344.596 142.864 345.239 143.474C345.882 144.083 346.389 144.876 346.76 145.85C347.131 146.818 347.317 147.994 347.317 149.38V150.434H335.176V148.207H344.403C344.403 147.424 344.244 146.732 343.926 146.128C343.608 145.519 343.16 145.038 342.584 144.687C342.014 144.335 341.344 144.16 340.575 144.16C339.74 144.16 339.011 144.365 338.388 144.776C337.771 145.181 337.294 145.711 336.956 146.367C336.624 147.017 336.459 147.723 336.459 148.485V150.225C336.459 151.246 336.638 152.114 336.996 152.83C337.36 153.546 337.867 154.093 338.517 154.471C339.167 154.842 339.926 155.028 340.794 155.028C341.357 155.028 341.871 154.948 342.335 154.789C342.799 154.623 343.2 154.378 343.538 154.053C343.876 153.728 344.135 153.327 344.314 152.85L347.128 153.357C346.902 154.186 346.498 154.912 345.915 155.535C345.338 156.151 344.612 156.632 343.737 156.976C342.869 157.314 341.878 157.484 340.764 157.484Z" fill="#6098BD"/>
</g>
<defs>
<filter id="filter0_i_1_31" x="13.617" y="37.276" width="340.794" height="90.4449" filterUnits="userSpaceOnUse" color-interpolation-filters="sRGB">
<feFlood flood-opacity="0" result="BackgroundImageFix"/>
<feBlend mode="normal" in="SourceGraphic" in2="BackgroundImageFix" result="shape"/>
<feColorMatrix in="SourceAlpha" type="matrix" values="0 0 0 0 0 0 0 0 0 0 0 0 0 0 0 0 0 0 127 0" result="hardAlpha"/>
<feOffset dy="4"/>
<feGaussianBlur stdDeviation="2"/>
<feComposite in2="hardAlpha" operator="arithmetic" k2="-1" k3="1"/>
<feColorMatrix type="matrix" values="0 0 0 0 0.270521 0 0 0 0 0.506402 0 0 0 0 0.6625 0 0 0 1 0"/>
<feBlend mode="normal" in2="shape" result="effect1_innerShadow_1_31"/>
</filter>
<filter id="filter1_i_1_31" x="8.63635" y="135.857" width="338.68" height="31.3636" filterUnits="userSpaceOnUse" color-interpolation-filters="sRGB">
<feFlood flood-opacity="0" result="BackgroundImageFix"/>
<feBlend mode="normal" in="SourceGraphic" in2="BackgroundImageFix" result="shape"/>
<feColorMatrix in="SourceAlpha" type="matrix" values="0 0 0 0 0 0 0 0 0 0 0 0 0 0 0 0 0 0 127 0" result="hardAlpha"/>
<feOffset dy="4"/>
<feGaussianBlur stdDeviation="2"/>
<feComposite in2="hardAlpha" operator="arithmetic" k2="-1" k3="1"/>
<feColorMatrix type="matrix" values="0 0 0 0 0.270521 0 0 0 0 0.506402 0 0 0 0 0.6625 0 0 0 1 0"/>
<feBlend mode="normal" in2="shape" result="effect1_innerShadow_1_31"/>
</filter>
</defs>
</svg>
