<svg width="124" height="72" viewBox="0 0 124 72" fill="none" xmlns="http://www.w3.org/2000/svg">
<g clip-path="url(#clip0_6_557)">
<path d="M25.51 15.8C24.82 15.8 30.33 13.73 34.51 10.97C38.69 8.21004 40.71 1.33004 51.05 4.97004C61.39 8.61004 65.98 9.80004 71.26 4.28004C76.54 -1.23996 81.14 -2.37996 89.63 6.35004C98.12 15.08 109.85 8.42004 115.13 15.08C115.13 15.08 103.65 12.78 97.9 17.38C92.15 21.98 89.14 31.19 86.15 32.8C83.16 34.41 82.7 68.51 80.64 65.18C75.64 57.18 76.73 17.63 70.53 23.84C64.33 30.05 64.33 36 60.65 32.34C56.97 28.68 53.53 30.73 53.99 36C54.45 41.27 51.92 52.77 50.78 45.42C49.64 38.07 51.46 20.42 46.18 22.42C44.2292 23.1981 42.0705 23.283 40.0647 22.6605C38.0588 22.038 36.3275 20.7459 35.16 19C33.78 16.72 28.15 15.8 25.51 15.8Z" fill="#FEFDFD"/>
<mask id="mask0_6_557" style="mask-type:luminance" maskUnits="userSpaceOnUse" x="25" y="-1" width="91" height="67">
<path d="M25.51 15.8C24.82 15.8 30.33 13.73 34.51 10.97C38.69 8.21004 40.71 1.33004 51.05 4.97004C61.39 8.61004 65.98 9.80004 71.26 4.28004C76.54 -1.23996 81.14 -2.37996 89.63 6.35004C98.12 15.08 109.85 8.42004 115.13 15.08C115.13 15.08 103.65 12.78 97.9 17.38C92.15 21.98 89.14 31.19 86.15 32.8C83.16 34.41 82.7 68.51 80.64 65.18C75.64 57.18 76.73 17.63 70.53 23.84C64.33 30.05 64.33 36 60.65 32.34C56.97 28.68 53.53 30.73 53.99 36C54.45 41.27 51.92 52.77 50.78 45.42C49.64 38.07 51.46 20.42 46.18 22.42C44.2292 23.1981 42.0705 23.283 40.0647 22.6605C38.0588 22.038 36.3275 20.7459 35.16 19C33.78 16.72 28.15 15.8 25.51 15.8Z" fill="white"/>
</mask>
<g mask="url(#mask0_6_557)">
<path d="M36.3 7.53008C36.3 7.53008 34.12 12.7001 39.3 14.5301C44.48 16.3601 46.77 11.6601 49.98 16.6001C53.19 21.5401 58.6 28.6001 62.73 23.7201C66.86 18.8401 74.78 10.4001 77.88 21.3101C80.98 32.2201 87.64 27.1701 89.25 19.8201C90.86 12.4701 101.45 7.07008 107.74 8.79008C114.03 10.5101 123.74 27.8601 123.74 27.8601C123.74 27.8601 102.8 64.4901 98.09 67.4801C93.38 70.4701 60.88 71.3801 60.88 71.3801C60.88 71.3801 -12.05 43.1301 1.73 21.0001C15.51 -1.12992 36.3 7.53008 36.3 7.53008Z" fill="#D8ECF5"/>
<path d="M26.45 13.62C26.91 13.27 33.57 12.47 37.7 16.83C41.83 21.19 46.2 15.34 48.61 19.36C51.02 23.38 51.03 43.59 52.17 38.54C53.31 33.49 52.96 24.41 56.86 28C60.76 31.59 63.18 30.64 65.25 26.85C67.32 23.06 72.45 16 75.35 23.49C78.25 30.98 79.83 48.49 82.35 38.54C84.87 28.59 85.57 33.48 88.9 27.17C92.23 20.86 98.2 12.93 104.74 12.93C111.28 12.93 119.68 12.7 119.68 12.7L114.86 40.26L94.88 70L73.06 71.84L34.93 51.29L17.58 28.2L9.58 10.28L26.45 13.62Z" fill="#ADD3E7"/>
</g>
</g>
<defs>
<clipPath id="clip0_6_557">
<rect width="123.7" height="71.84" fill="white"/>
</clipPath>
</defs>
</svg>
