<svg width="124" height="72" viewBox="0 0 124 72" fill="none" xmlns="http://www.w3.org/2000/svg">
<path d="M8.62891 15.8C7.93891 15.8 13.4489 13.73 17.6289 10.97C30.6189 7 31.2835 15.5127 39.1189 11.5C43.7888 9.1084 44.3389 8.51993 49.6189 2.99993C54.8989 -2.52007 60.9889 15.65 76.1189 8C84.9889 6.15003 93.42 9.34 98.7 16C98.7 16 87.3689 15.8999 81.6189 20.4999C75.8689 25.0999 72.2589 31.19 69.2689 32.8C66.2789 34.41 65.6789 52.8299 63.6189 49.4999C58.6189 41.4999 59.8189 23.2899 53.6189 29.4999C47.4189 35.7099 46.7989 39.66 43.1189 36C39.4389 32.34 38.1589 33.2299 38.6189 38.4999C39.0789 43.7699 35.0389 52.77 33.8989 45.42C32.7589 38.07 34.5789 20.42 29.2989 22.42C27.3482 23.1981 24.6247 25.1224 22.6189 24.4999C20.6131 23.8774 16.7864 22.2458 15.6189 20.4999C14.2389 18.2199 11.2689 15.8 8.62891 15.8Z" fill="#FEFDFD"/>
<mask id="mask0_14_2488" style="mask-type:luminance" maskUnits="userSpaceOnUse" x="8" y="2" width="91" height="48">
<path d="M8.62891 15.8C7.93891 15.8 13.4489 13.73 17.6289 10.97C21.8089 8.20997 27.2789 5.35993 37.6189 8.99993C47.9589 12.6399 49.8389 13.0199 55.1189 7.49989C60.3989 1.97989 64.1289 0.26996 72.6189 8.99996C81.1089 17.73 93.42 9.34 98.7 16C98.7 16 88.3689 16.3999 82.6189 20.9999C76.8689 25.5999 72.2589 31.19 69.2689 32.8C66.2789 34.41 65.6789 52.8299 63.6189 49.4999C58.6189 41.4999 59.8189 23.2899 53.6189 29.4999C47.4189 35.7099 46.7989 40.6599 43.1189 36.9999C39.4389 33.3399 38.6589 33.23 39.1189 38.5C39.5789 43.77 35.0389 52.77 33.8989 45.42C32.7589 38.07 32.2989 20.42 29.1189 23.5C25.9389 26.5801 24.6189 26.5 22.1189 25.5C20.1189 24 17.2864 22.7458 16.1189 20.9999C14.7389 18.7199 11.2689 15.8 8.62891 15.8Z" fill="white"/>
</mask>
<g mask="url(#mask0_14_2488)">
<path d="M19.4189 7.52996C19.4189 7.52996 16.4389 12.6699 21.6189 14.4999C26.7989 16.3299 29.8889 11.66 33.0989 16.6C35.6189 24.4999 41.4889 29.8799 45.6189 24.9999C49.7489 20.1199 57.8989 10.4 60.9989 21.31C64.0989 32.22 70.7589 27.17 72.3689 19.82C73.9789 12.47 84.5689 7.06996 90.8589 8.78996C97.1489 10.51 106.859 27.86 106.859 27.86C106.859 27.86 85.9189 64.49 81.2089 67.48C76.4989 70.47 43.9989 71.38 43.9989 71.38C43.9989 71.38 -28.9311 43.13 -15.1511 21C-1.37109 -1.13004 19.4189 7.52996 19.4189 7.52996Z" fill="#D8ECF5"/>
<path d="M9.56891 13.6199C10.0289 13.2699 16.4889 14.1399 20.6189 18.4999C24.7489 22.8599 29.3189 15.3399 31.7289 19.3599C34.1389 23.3799 34.9789 45.3099 36.1189 40.2599C37.2589 35.2099 36.0789 24.4099 39.9789 27.9999C44.1189 36.9999 46.5489 31.9899 48.6189 28.1999C50.6889 24.4099 56.7189 18.5099 59.6189 25.9999C62.5189 33.4899 62.9489 48.4899 65.4689 38.5399C67.9889 28.5899 68.6889 33.4799 72.0189 27.1699C75.3489 20.8599 81.0789 14.4999 87.6189 14.4999C94.1589 14.4999 102.799 12.6999 102.799 12.6999L97.9789 40.2599L77.9989 69.9999L56.1789 71.8399L18.0489 51.2899L0.698914 28.1999L-7.30109 10.2799L9.56891 13.6199Z" fill="#ADD3E7"/>
</g>
</svg>
